%FSLAX45Y45*%
G04 Gerber Fmt 4.5, Leading zero omitted, Abs format (unit mm)*
G04 Created by KiCad (PCBNEW (6.0.1-0)) date 2022-02-22 22:29:47*
%MOMM*%
%LPD*%
G01*
G04 APERTURE LIST*
%TA.AperFunction,Profile*%
%ADD10C,0.150000*%
%TD*%
%ADD11C,0.200000*%
%ADD12C,0.040000*%
G04 APERTURE END LIST*
D10*
X12460000Y-9140000D02*
X12620000Y-9140000D01*
X7540000Y-10000000D02*
X12460000Y-10000000D01*
X7540000Y-9140000D02*
X7380000Y-9140000D01*
X7380000Y-7735000D02*
X7380000Y-9140000D01*
X12620000Y-9139500D02*
X12620000Y-7735000D01*
X12460000Y-10000000D02*
X12460000Y-9140000D01*
X7540000Y-10000000D02*
X7540000Y-9140000D01*
X7380000Y-7735000D02*
X12620000Y-7735000D01*
D11*
D12*
X9605000Y-7970000D02*
X9645000Y-8010000D01*
X9645000Y-7970000D02*
X9605000Y-8010000D01*
X9605000Y-9230000D02*
X9645000Y-9270000D01*
X9645000Y-9230000D02*
X9605000Y-9270000D01*
X9755000Y-7970000D02*
X9795000Y-8010000D01*
X9795000Y-7970000D02*
X9755000Y-8010000D01*
X9755000Y-9230000D02*
X9795000Y-9270000D01*
X9795000Y-9230000D02*
X9755000Y-9270000D01*
X9905000Y-7970000D02*
X9945000Y-8010000D01*
X9945000Y-7970000D02*
X9905000Y-8010000D01*
X9905000Y-9230000D02*
X9945000Y-9270000D01*
X9945000Y-9230000D02*
X9905000Y-9270000D01*
X10055000Y-7970000D02*
X10095000Y-8010000D01*
X10095000Y-7970000D02*
X10055000Y-8010000D01*
X10055000Y-9230000D02*
X10095000Y-9270000D01*
X10095000Y-9230000D02*
X10055000Y-9270000D01*
X10205000Y-7970000D02*
X10245000Y-8010000D01*
X10245000Y-7970000D02*
X10205000Y-8010000D01*
X10205000Y-9230000D02*
X10245000Y-9270000D01*
X10245000Y-9230000D02*
X10205000Y-9270000D01*
X10355000Y-7970000D02*
X10395000Y-8010000D01*
X10395000Y-7970000D02*
X10355000Y-8010000D01*
X10355000Y-9230000D02*
X10395000Y-9270000D01*
X10395000Y-9230000D02*
X10355000Y-9270000D01*
X12320000Y-9230000D02*
X12360000Y-9270000D01*
X12360000Y-9230000D02*
X12320000Y-9270000D01*
D11*
X7630119Y-10317976D02*
X7630119Y-10117976D01*
X7677738Y-10117976D01*
X7706309Y-10127500D01*
X7725357Y-10146548D01*
X7734881Y-10165595D01*
X7744405Y-10203690D01*
X7744405Y-10232262D01*
X7734881Y-10270357D01*
X7725357Y-10289405D01*
X7706309Y-10308452D01*
X7677738Y-10317976D01*
X7630119Y-10317976D01*
X7830119Y-10317976D02*
X7830119Y-10184643D01*
X7830119Y-10222738D02*
X7839643Y-10203690D01*
X7849167Y-10194167D01*
X7868214Y-10184643D01*
X7887262Y-10184643D01*
X7953928Y-10317976D02*
X7953928Y-10184643D01*
X7953928Y-10117976D02*
X7944405Y-10127500D01*
X7953928Y-10137024D01*
X7963452Y-10127500D01*
X7953928Y-10117976D01*
X7953928Y-10137024D01*
X8077738Y-10317976D02*
X8058690Y-10308452D01*
X8049167Y-10289405D01*
X8049167Y-10117976D01*
X8182500Y-10317976D02*
X8163452Y-10308452D01*
X8153928Y-10289405D01*
X8153928Y-10117976D01*
X8411071Y-10317976D02*
X8411071Y-10117976D01*
X8477738Y-10260833D01*
X8544405Y-10117976D01*
X8544405Y-10317976D01*
X8725357Y-10317976D02*
X8725357Y-10213214D01*
X8715833Y-10194167D01*
X8696786Y-10184643D01*
X8658690Y-10184643D01*
X8639643Y-10194167D01*
X8725357Y-10308452D02*
X8706310Y-10317976D01*
X8658690Y-10317976D01*
X8639643Y-10308452D01*
X8630119Y-10289405D01*
X8630119Y-10270357D01*
X8639643Y-10251310D01*
X8658690Y-10241786D01*
X8706310Y-10241786D01*
X8725357Y-10232262D01*
X8820595Y-10184643D02*
X8820595Y-10384643D01*
X8820595Y-10194167D02*
X8839643Y-10184643D01*
X8877738Y-10184643D01*
X8896786Y-10194167D01*
X8906310Y-10203690D01*
X8915833Y-10222738D01*
X8915833Y-10279881D01*
X8906310Y-10298929D01*
X8896786Y-10308452D01*
X8877738Y-10317976D01*
X8839643Y-10317976D01*
X8820595Y-10308452D01*
X9001548Y-10298929D02*
X9011071Y-10308452D01*
X9001548Y-10317976D01*
X8992024Y-10308452D01*
X9001548Y-10298929D01*
X9001548Y-10317976D01*
X9001548Y-10194167D02*
X9011071Y-10203690D01*
X9001548Y-10213214D01*
X8992024Y-10203690D01*
X9001548Y-10194167D01*
X9001548Y-10213214D01*
D12*
X7332500Y-10627500D02*
X7372500Y-10667500D01*
X7372500Y-10627500D02*
X7332500Y-10667500D01*
D11*
X7668214Y-10537976D02*
X7687262Y-10537976D01*
X7706309Y-10547500D01*
X7715833Y-10557024D01*
X7725357Y-10576071D01*
X7734881Y-10614167D01*
X7734881Y-10661786D01*
X7725357Y-10699881D01*
X7715833Y-10718929D01*
X7706309Y-10728452D01*
X7687262Y-10737976D01*
X7668214Y-10737976D01*
X7649167Y-10728452D01*
X7639643Y-10718929D01*
X7630119Y-10699881D01*
X7620595Y-10661786D01*
X7620595Y-10614167D01*
X7630119Y-10576071D01*
X7639643Y-10557024D01*
X7649167Y-10547500D01*
X7668214Y-10537976D01*
X7820595Y-10718929D02*
X7830119Y-10728452D01*
X7820595Y-10737976D01*
X7811071Y-10728452D01*
X7820595Y-10718929D01*
X7820595Y-10737976D01*
X8001548Y-10604643D02*
X8001548Y-10737976D01*
X7953928Y-10528452D02*
X7906309Y-10671310D01*
X8030119Y-10671310D01*
X8144405Y-10537976D02*
X8163452Y-10537976D01*
X8182500Y-10547500D01*
X8192024Y-10557024D01*
X8201548Y-10576071D01*
X8211071Y-10614167D01*
X8211071Y-10661786D01*
X8201548Y-10699881D01*
X8192024Y-10718929D01*
X8182500Y-10728452D01*
X8163452Y-10737976D01*
X8144405Y-10737976D01*
X8125357Y-10728452D01*
X8115833Y-10718929D01*
X8106309Y-10699881D01*
X8096786Y-10661786D01*
X8096786Y-10614167D01*
X8106309Y-10576071D01*
X8115833Y-10557024D01*
X8125357Y-10547500D01*
X8144405Y-10537976D01*
X8334881Y-10537976D02*
X8353928Y-10537976D01*
X8372976Y-10547500D01*
X8382500Y-10557024D01*
X8392024Y-10576071D01*
X8401548Y-10614167D01*
X8401548Y-10661786D01*
X8392024Y-10699881D01*
X8382500Y-10718929D01*
X8372976Y-10728452D01*
X8353928Y-10737976D01*
X8334881Y-10737976D01*
X8315833Y-10728452D01*
X8306309Y-10718929D01*
X8296786Y-10699881D01*
X8287262Y-10661786D01*
X8287262Y-10614167D01*
X8296786Y-10576071D01*
X8306309Y-10557024D01*
X8315833Y-10547500D01*
X8334881Y-10537976D01*
X8487262Y-10737976D02*
X8487262Y-10604643D01*
X8487262Y-10623690D02*
X8496786Y-10614167D01*
X8515833Y-10604643D01*
X8544405Y-10604643D01*
X8563452Y-10614167D01*
X8572976Y-10633214D01*
X8572976Y-10737976D01*
X8572976Y-10633214D02*
X8582500Y-10614167D01*
X8601548Y-10604643D01*
X8630119Y-10604643D01*
X8649167Y-10614167D01*
X8658690Y-10633214D01*
X8658690Y-10737976D01*
X8753929Y-10737976D02*
X8753929Y-10604643D01*
X8753929Y-10623690D02*
X8763452Y-10614167D01*
X8782500Y-10604643D01*
X8811071Y-10604643D01*
X8830119Y-10614167D01*
X8839643Y-10633214D01*
X8839643Y-10737976D01*
X8839643Y-10633214D02*
X8849167Y-10614167D01*
X8868214Y-10604643D01*
X8896786Y-10604643D01*
X8915833Y-10614167D01*
X8925357Y-10633214D01*
X8925357Y-10737976D01*
X9315833Y-10528452D02*
X9144405Y-10785595D01*
X9572976Y-10537976D02*
X9592024Y-10537976D01*
X9611071Y-10547500D01*
X9620595Y-10557024D01*
X9630119Y-10576071D01*
X9639643Y-10614167D01*
X9639643Y-10661786D01*
X9630119Y-10699881D01*
X9620595Y-10718929D01*
X9611071Y-10728452D01*
X9592024Y-10737976D01*
X9572976Y-10737976D01*
X9553929Y-10728452D01*
X9544405Y-10718929D01*
X9534881Y-10699881D01*
X9525357Y-10661786D01*
X9525357Y-10614167D01*
X9534881Y-10576071D01*
X9544405Y-10557024D01*
X9553929Y-10547500D01*
X9572976Y-10537976D01*
X9725357Y-10718929D02*
X9734881Y-10728452D01*
X9725357Y-10737976D01*
X9715833Y-10728452D01*
X9725357Y-10718929D01*
X9725357Y-10737976D01*
X9858690Y-10537976D02*
X9877738Y-10537976D01*
X9896786Y-10547500D01*
X9906310Y-10557024D01*
X9915833Y-10576071D01*
X9925357Y-10614167D01*
X9925357Y-10661786D01*
X9915833Y-10699881D01*
X9906310Y-10718929D01*
X9896786Y-10728452D01*
X9877738Y-10737976D01*
X9858690Y-10737976D01*
X9839643Y-10728452D01*
X9830119Y-10718929D01*
X9820595Y-10699881D01*
X9811071Y-10661786D01*
X9811071Y-10614167D01*
X9820595Y-10576071D01*
X9830119Y-10557024D01*
X9839643Y-10547500D01*
X9858690Y-10537976D01*
X10115833Y-10737976D02*
X10001548Y-10737976D01*
X10058690Y-10737976D02*
X10058690Y-10537976D01*
X10039643Y-10566548D01*
X10020595Y-10585595D01*
X10001548Y-10595119D01*
X10296786Y-10537976D02*
X10201548Y-10537976D01*
X10192024Y-10633214D01*
X10201548Y-10623690D01*
X10220595Y-10614167D01*
X10268214Y-10614167D01*
X10287262Y-10623690D01*
X10296786Y-10633214D01*
X10306310Y-10652262D01*
X10306310Y-10699881D01*
X10296786Y-10718929D01*
X10287262Y-10728452D01*
X10268214Y-10737976D01*
X10220595Y-10737976D01*
X10201548Y-10728452D01*
X10192024Y-10718929D01*
X10372976Y-10537976D02*
X10506310Y-10537976D01*
X10420595Y-10737976D01*
X10572976Y-10537976D02*
X10572976Y-10576071D01*
X10649167Y-10537976D02*
X10649167Y-10576071D01*
X10944405Y-10814167D02*
X10934881Y-10804643D01*
X10915833Y-10776071D01*
X10906310Y-10757024D01*
X10896786Y-10728452D01*
X10887262Y-10680833D01*
X10887262Y-10642738D01*
X10896786Y-10595119D01*
X10906310Y-10566548D01*
X10915833Y-10547500D01*
X10934881Y-10518929D01*
X10944405Y-10509405D01*
X11125357Y-10737976D02*
X11011071Y-10737976D01*
X11068214Y-10737976D02*
X11068214Y-10537976D01*
X11049167Y-10566548D01*
X11030119Y-10585595D01*
X11011071Y-10595119D01*
X11192024Y-10537976D02*
X11315833Y-10537976D01*
X11249167Y-10614167D01*
X11277738Y-10614167D01*
X11296786Y-10623690D01*
X11306309Y-10633214D01*
X11315833Y-10652262D01*
X11315833Y-10699881D01*
X11306309Y-10718929D01*
X11296786Y-10728452D01*
X11277738Y-10737976D01*
X11220595Y-10737976D01*
X11201548Y-10728452D01*
X11192024Y-10718929D01*
X11553928Y-10737976D02*
X11553928Y-10537976D01*
X11639643Y-10737976D02*
X11639643Y-10633214D01*
X11630119Y-10614167D01*
X11611071Y-10604643D01*
X11582500Y-10604643D01*
X11563452Y-10614167D01*
X11553928Y-10623690D01*
X11763452Y-10737976D02*
X11744405Y-10728452D01*
X11734881Y-10718929D01*
X11725357Y-10699881D01*
X11725357Y-10642738D01*
X11734881Y-10623690D01*
X11744405Y-10614167D01*
X11763452Y-10604643D01*
X11792024Y-10604643D01*
X11811071Y-10614167D01*
X11820595Y-10623690D01*
X11830119Y-10642738D01*
X11830119Y-10699881D01*
X11820595Y-10718929D01*
X11811071Y-10728452D01*
X11792024Y-10737976D01*
X11763452Y-10737976D01*
X11944405Y-10737976D02*
X11925357Y-10728452D01*
X11915833Y-10709405D01*
X11915833Y-10537976D01*
X12096786Y-10728452D02*
X12077738Y-10737976D01*
X12039643Y-10737976D01*
X12020595Y-10728452D01*
X12011071Y-10709405D01*
X12011071Y-10633214D01*
X12020595Y-10614167D01*
X12039643Y-10604643D01*
X12077738Y-10604643D01*
X12096786Y-10614167D01*
X12106309Y-10633214D01*
X12106309Y-10652262D01*
X12011071Y-10671310D01*
X12182500Y-10728452D02*
X12201548Y-10737976D01*
X12239643Y-10737976D01*
X12258690Y-10728452D01*
X12268214Y-10709405D01*
X12268214Y-10699881D01*
X12258690Y-10680833D01*
X12239643Y-10671310D01*
X12211071Y-10671310D01*
X12192024Y-10661786D01*
X12182500Y-10642738D01*
X12182500Y-10633214D01*
X12192024Y-10614167D01*
X12211071Y-10604643D01*
X12239643Y-10604643D01*
X12258690Y-10614167D01*
X12334881Y-10814167D02*
X12344405Y-10804643D01*
X12363452Y-10776071D01*
X12372976Y-10757024D01*
X12382500Y-10728452D01*
X12392024Y-10680833D01*
X12392024Y-10642738D01*
X12382500Y-10595119D01*
X12372976Y-10566548D01*
X12363452Y-10547500D01*
X12344405Y-10518929D01*
X12334881Y-10509405D01*
M02*
