G04 #@! TF.GenerationSoftware,KiCad,Pcbnew,(6.0.1-0)*
G04 #@! TF.CreationDate,2022-02-22T22:29:53-05:00*
G04 #@! TF.ProjectId,GBCart-Extender,47424361-7274-42d4-9578-74656e646572,rev?*
G04 #@! TF.SameCoordinates,Original*
G04 #@! TF.FileFunction,Soldermask,Top*
G04 #@! TF.FilePolarity,Negative*
%FSLAX46Y46*%
G04 Gerber Fmt 4.6, Leading zero omitted, Abs format (unit mm)*
G04 Created by KiCad (PCBNEW (6.0.1-0)) date 2022-02-22 22:29:53*
%MOMM*%
%LPD*%
G01*
G04 APERTURE LIST*
G04 #@! TA.AperFunction,Profile*
%ADD10C,0.150000*%
G04 #@! TD*
%ADD11C,7.200000*%
%ADD12R,1.300000X6.000000*%
%ADD13R,1.000000X5.500000*%
%ADD14R,1.000000X3.000000*%
%ADD15R,1.300000X3.000000*%
G04 APERTURE END LIST*
D10*
X124600000Y-91400000D02*
X126200000Y-91400000D01*
X75400000Y-100000000D02*
X124600000Y-100000000D01*
X75400000Y-91400000D02*
X73800000Y-91400000D01*
X73800000Y-77350000D02*
X73800000Y-91400000D01*
X126200000Y-91395000D02*
X126200000Y-77350000D01*
X124600000Y-100000000D02*
X124600000Y-91400000D01*
X75400000Y-100000000D02*
X75400000Y-91400000D01*
X73800000Y-77350000D02*
X126200000Y-77350000D01*
D11*
X100000000Y-84650000D03*
D12*
X76600000Y-96000000D03*
D13*
X78250000Y-95750000D03*
X79750000Y-95750000D03*
X81250000Y-95750000D03*
X82750000Y-95750000D03*
X84250000Y-95750000D03*
X85750000Y-95750000D03*
X87250000Y-95750000D03*
X88750000Y-95750000D03*
X90250000Y-95750000D03*
X91750000Y-95750000D03*
X93250000Y-95750000D03*
X94750000Y-95750000D03*
X96250000Y-95750000D03*
X97750000Y-95750000D03*
X99250000Y-95750000D03*
X100750000Y-95750000D03*
X102250000Y-95750000D03*
X103750000Y-95750000D03*
X105250000Y-95750000D03*
X106750000Y-95750000D03*
X108250000Y-95750000D03*
X109750000Y-95750000D03*
X111250000Y-95750000D03*
X112750000Y-95750000D03*
X114250000Y-95750000D03*
X115750000Y-95750000D03*
X117250000Y-95750000D03*
X118750000Y-95750000D03*
X120250000Y-95750000D03*
X121750000Y-95750000D03*
D12*
X123400000Y-96000000D03*
D14*
X103750000Y-79000000D03*
X81250000Y-79000000D03*
X96250000Y-79000000D03*
X120250000Y-79000000D03*
X102250000Y-79000000D03*
X91750000Y-79000000D03*
D15*
X123400000Y-79000000D03*
D14*
X111250000Y-79000000D03*
X117250000Y-79000000D03*
X118750000Y-79000000D03*
X109750000Y-79000000D03*
X105250000Y-79000000D03*
X82750000Y-79000000D03*
X79800000Y-79000000D03*
X99250000Y-79000000D03*
X78250000Y-79000000D03*
X97750000Y-79000000D03*
X90250000Y-79000000D03*
X93250000Y-79000000D03*
X115750000Y-79000000D03*
X114250000Y-79000000D03*
X112750000Y-79000000D03*
X121750000Y-79000000D03*
X87250000Y-79000000D03*
D15*
X76600000Y-79000000D03*
D14*
X88750000Y-79000000D03*
X100750000Y-79000000D03*
X106750000Y-79000000D03*
X94750000Y-79000000D03*
X84250000Y-79000000D03*
X108250000Y-79000000D03*
X85750000Y-79000000D03*
M02*
