G04 #@! TF.GenerationSoftware,KiCad,Pcbnew,(6.0.1-0)*
G04 #@! TF.CreationDate,2022-02-22T22:29:53-05:00*
G04 #@! TF.ProjectId,GBCart-Extender,47424361-7274-42d4-9578-74656e646572,rev?*
G04 #@! TF.SameCoordinates,Original*
G04 #@! TF.FileFunction,Copper,L2,Bot*
G04 #@! TF.FilePolarity,Positive*
%FSLAX46Y46*%
G04 Gerber Fmt 4.6, Leading zero omitted, Abs format (unit mm)*
G04 Created by KiCad (PCBNEW (6.0.1-0)) date 2022-02-22 22:29:53*
%MOMM*%
%LPD*%
G01*
G04 APERTURE LIST*
G04 #@! TA.AperFunction,Profile*
%ADD10C,0.150000*%
G04 #@! TD*
G04 #@! TA.AperFunction,ViaPad*
%ADD11C,0.600000*%
G04 #@! TD*
G04 #@! TA.AperFunction,Conductor*
%ADD12C,0.400000*%
G04 #@! TD*
G04 APERTURE END LIST*
D10*
X124600000Y-91400000D02*
X126200000Y-91400000D01*
X75400000Y-100000000D02*
X124600000Y-100000000D01*
X75400000Y-91400000D02*
X73800000Y-91400000D01*
X73800000Y-77350000D02*
X73800000Y-91400000D01*
X126200000Y-91395000D02*
X126200000Y-77350000D01*
X124600000Y-100000000D02*
X124600000Y-91400000D01*
X75400000Y-100000000D02*
X75400000Y-91400000D01*
X73800000Y-77350000D02*
X126200000Y-77350000D01*
D11*
X123400000Y-92500000D03*
X96250000Y-79900000D03*
X96250000Y-92500000D03*
X97750000Y-92500000D03*
X97750000Y-79900000D03*
X99250000Y-92500000D03*
X99250000Y-79900000D03*
X100750000Y-92500000D03*
X100750000Y-79900000D03*
X102250000Y-79900000D03*
X102250000Y-92500000D03*
X103750000Y-92500000D03*
X103750000Y-79900000D03*
D12*
X96250000Y-92500000D02*
X94351439Y-90601439D01*
X94351439Y-81798561D02*
X96250000Y-79900000D01*
X94351439Y-90601439D02*
X94351439Y-81798561D01*
X97750000Y-92500000D02*
X95150959Y-89900959D01*
X95150959Y-89900959D02*
X95150959Y-82499041D01*
X95150959Y-82499041D02*
X97750000Y-79900000D01*
X99023111Y-79900000D02*
X99250000Y-79900000D01*
X95950479Y-89200479D02*
X95950479Y-82972632D01*
X99250000Y-92500000D02*
X95950479Y-89200479D01*
X95950479Y-82972632D02*
X99023111Y-79900000D01*
X104049521Y-82972632D02*
X100976889Y-79900000D01*
X104049521Y-89200479D02*
X104049521Y-82972632D01*
X100976889Y-79900000D02*
X100750000Y-79900000D01*
X100750000Y-92500000D02*
X104049521Y-89200479D01*
X102250000Y-92500000D02*
X104849041Y-89900959D01*
X104849041Y-89900959D02*
X104849041Y-82499041D01*
X104849041Y-82499041D02*
X102250000Y-79900000D01*
X105648561Y-81798561D02*
X105648561Y-90601439D01*
X105648561Y-90601439D02*
X103750000Y-92500000D01*
X103750000Y-79900000D02*
X105648561Y-81798561D01*
G04 #@! TA.AperFunction,Conductor*
G36*
X125634121Y-77878002D02*
G01*
X125680614Y-77931658D01*
X125692000Y-77984000D01*
X125692000Y-90766000D01*
X125671998Y-90834121D01*
X125618342Y-90880614D01*
X125566000Y-90892000D01*
X124608702Y-90892000D01*
X124607932Y-90891998D01*
X124607078Y-90891993D01*
X124530348Y-90891524D01*
X124521719Y-90893990D01*
X124521714Y-90893991D01*
X124501952Y-90899639D01*
X124485191Y-90903217D01*
X124464848Y-90906130D01*
X124464838Y-90906133D01*
X124455955Y-90907405D01*
X124432605Y-90918021D01*
X124415093Y-90924464D01*
X124407057Y-90926761D01*
X124390435Y-90931512D01*
X124365452Y-90947274D01*
X124350386Y-90955404D01*
X124323490Y-90967633D01*
X124304061Y-90984374D01*
X124289053Y-90995479D01*
X124267369Y-91009160D01*
X124254234Y-91024033D01*
X124247819Y-91031296D01*
X124235627Y-91043340D01*
X124213253Y-91062619D01*
X124208374Y-91070147D01*
X124208371Y-91070150D01*
X124199304Y-91084139D01*
X124188014Y-91099013D01*
X124171044Y-91118228D01*
X124158490Y-91144966D01*
X124150176Y-91159935D01*
X124134107Y-91184727D01*
X124131535Y-91193327D01*
X124126761Y-91209290D01*
X124120099Y-91226736D01*
X124109201Y-91249948D01*
X124104658Y-91279128D01*
X124100874Y-91295849D01*
X124094986Y-91315536D01*
X124094985Y-91315539D01*
X124092413Y-91324141D01*
X124092358Y-91333116D01*
X124092358Y-91333117D01*
X124092203Y-91358546D01*
X124092170Y-91359328D01*
X124092000Y-91360423D01*
X124092000Y-91391298D01*
X124091998Y-91392068D01*
X124091524Y-91469652D01*
X124091908Y-91470996D01*
X124092000Y-91472341D01*
X124092000Y-99366000D01*
X124071998Y-99434121D01*
X124018342Y-99480614D01*
X123966000Y-99492000D01*
X76034000Y-99492000D01*
X75965879Y-99471998D01*
X75919386Y-99418342D01*
X75908000Y-99366000D01*
X75908000Y-91408702D01*
X75908002Y-91407932D01*
X75908421Y-91339322D01*
X75908476Y-91330348D01*
X75906010Y-91321719D01*
X75906009Y-91321714D01*
X75900361Y-91301952D01*
X75896783Y-91285191D01*
X75893870Y-91264848D01*
X75893867Y-91264838D01*
X75892595Y-91255955D01*
X75881979Y-91232605D01*
X75875536Y-91215093D01*
X75870954Y-91199063D01*
X75868488Y-91190435D01*
X75852726Y-91165452D01*
X75844596Y-91150386D01*
X75832367Y-91123490D01*
X75815626Y-91104061D01*
X75804521Y-91089053D01*
X75795630Y-91074961D01*
X75790840Y-91067369D01*
X75768703Y-91047818D01*
X75756659Y-91035626D01*
X75743239Y-91020051D01*
X75743237Y-91020050D01*
X75737381Y-91013253D01*
X75729853Y-91008374D01*
X75729850Y-91008371D01*
X75715861Y-90999304D01*
X75700987Y-90988014D01*
X75688502Y-90976988D01*
X75681772Y-90971044D01*
X75673646Y-90967229D01*
X75673645Y-90967228D01*
X75667979Y-90964568D01*
X75655034Y-90958490D01*
X75640065Y-90950176D01*
X75615273Y-90934107D01*
X75590709Y-90926761D01*
X75573264Y-90920099D01*
X75568827Y-90918016D01*
X75550052Y-90909201D01*
X75520870Y-90904657D01*
X75504151Y-90900874D01*
X75484464Y-90894986D01*
X75484461Y-90894985D01*
X75475859Y-90892413D01*
X75466884Y-90892358D01*
X75466883Y-90892358D01*
X75460190Y-90892317D01*
X75441444Y-90892203D01*
X75440672Y-90892170D01*
X75439577Y-90892000D01*
X75408702Y-90892000D01*
X75407932Y-90891998D01*
X75334284Y-90891548D01*
X75334283Y-90891548D01*
X75330348Y-90891524D01*
X75329004Y-90891908D01*
X75327659Y-90892000D01*
X74434000Y-90892000D01*
X74365879Y-90871998D01*
X74319386Y-90818342D01*
X74308000Y-90766000D01*
X74308000Y-90638791D01*
X93638714Y-90638791D01*
X93640019Y-90646268D01*
X93640019Y-90646269D01*
X93649700Y-90701738D01*
X93650662Y-90708260D01*
X93658337Y-90771681D01*
X93661020Y-90778782D01*
X93661661Y-90781391D01*
X93666124Y-90797701D01*
X93666889Y-90800237D01*
X93668196Y-90807723D01*
X93672858Y-90818342D01*
X93693881Y-90866234D01*
X93696372Y-90872338D01*
X93698954Y-90879170D01*
X93716069Y-90924464D01*
X93718952Y-90932095D01*
X93723256Y-90938358D01*
X93724493Y-90940724D01*
X93732738Y-90955536D01*
X93734071Y-90957790D01*
X93737124Y-90964744D01*
X93771207Y-91009160D01*
X93776018Y-91015430D01*
X93779898Y-91020771D01*
X93811778Y-91067159D01*
X93811783Y-91067164D01*
X93816082Y-91073420D01*
X93821752Y-91078471D01*
X93821753Y-91078473D01*
X93862609Y-91114874D01*
X93867885Y-91119855D01*
X95451532Y-92703502D01*
X95481994Y-92752824D01*
X95511418Y-92841273D01*
X95515065Y-92847295D01*
X95515066Y-92847297D01*
X95588521Y-92968586D01*
X95605380Y-92996424D01*
X95731382Y-93126902D01*
X95883159Y-93226222D01*
X95889763Y-93228678D01*
X95889765Y-93228679D01*
X96046558Y-93286990D01*
X96046560Y-93286990D01*
X96053168Y-93289448D01*
X96136995Y-93300633D01*
X96225980Y-93312507D01*
X96225984Y-93312507D01*
X96232961Y-93313438D01*
X96239972Y-93312800D01*
X96239976Y-93312800D01*
X96382459Y-93299832D01*
X96413600Y-93296998D01*
X96420302Y-93294820D01*
X96420304Y-93294820D01*
X96579409Y-93243124D01*
X96579412Y-93243123D01*
X96586108Y-93240947D01*
X96741912Y-93148069D01*
X96873266Y-93022982D01*
X96893310Y-92992813D01*
X96947667Y-92947144D01*
X97018086Y-92938112D01*
X97082210Y-92968586D01*
X97098088Y-92985667D01*
X97101728Y-92990393D01*
X97105380Y-92996424D01*
X97231382Y-93126902D01*
X97383159Y-93226222D01*
X97389763Y-93228678D01*
X97389765Y-93228679D01*
X97546558Y-93286990D01*
X97546560Y-93286990D01*
X97553168Y-93289448D01*
X97636995Y-93300633D01*
X97725980Y-93312507D01*
X97725984Y-93312507D01*
X97732961Y-93313438D01*
X97739972Y-93312800D01*
X97739976Y-93312800D01*
X97882459Y-93299832D01*
X97913600Y-93296998D01*
X97920302Y-93294820D01*
X97920304Y-93294820D01*
X98079409Y-93243124D01*
X98079412Y-93243123D01*
X98086108Y-93240947D01*
X98241912Y-93148069D01*
X98373266Y-93022982D01*
X98393310Y-92992813D01*
X98447667Y-92947144D01*
X98518086Y-92938112D01*
X98582210Y-92968586D01*
X98598088Y-92985667D01*
X98601728Y-92990393D01*
X98605380Y-92996424D01*
X98731382Y-93126902D01*
X98883159Y-93226222D01*
X98889763Y-93228678D01*
X98889765Y-93228679D01*
X99046558Y-93286990D01*
X99046560Y-93286990D01*
X99053168Y-93289448D01*
X99136995Y-93300633D01*
X99225980Y-93312507D01*
X99225984Y-93312507D01*
X99232961Y-93313438D01*
X99239972Y-93312800D01*
X99239976Y-93312800D01*
X99382459Y-93299832D01*
X99413600Y-93296998D01*
X99420302Y-93294820D01*
X99420304Y-93294820D01*
X99579409Y-93243124D01*
X99579412Y-93243123D01*
X99586108Y-93240947D01*
X99741912Y-93148069D01*
X99873266Y-93022982D01*
X99893310Y-92992813D01*
X99947667Y-92947144D01*
X100018086Y-92938112D01*
X100082210Y-92968586D01*
X100098088Y-92985667D01*
X100101728Y-92990393D01*
X100105380Y-92996424D01*
X100231382Y-93126902D01*
X100383159Y-93226222D01*
X100389763Y-93228678D01*
X100389765Y-93228679D01*
X100546558Y-93286990D01*
X100546560Y-93286990D01*
X100553168Y-93289448D01*
X100636995Y-93300633D01*
X100725980Y-93312507D01*
X100725984Y-93312507D01*
X100732961Y-93313438D01*
X100739972Y-93312800D01*
X100739976Y-93312800D01*
X100882459Y-93299832D01*
X100913600Y-93296998D01*
X100920302Y-93294820D01*
X100920304Y-93294820D01*
X101079409Y-93243124D01*
X101079412Y-93243123D01*
X101086108Y-93240947D01*
X101241912Y-93148069D01*
X101373266Y-93022982D01*
X101393310Y-92992813D01*
X101447667Y-92947144D01*
X101518086Y-92938112D01*
X101582210Y-92968586D01*
X101598088Y-92985667D01*
X101601728Y-92990393D01*
X101605380Y-92996424D01*
X101731382Y-93126902D01*
X101883159Y-93226222D01*
X101889763Y-93228678D01*
X101889765Y-93228679D01*
X102046558Y-93286990D01*
X102046560Y-93286990D01*
X102053168Y-93289448D01*
X102136995Y-93300633D01*
X102225980Y-93312507D01*
X102225984Y-93312507D01*
X102232961Y-93313438D01*
X102239972Y-93312800D01*
X102239976Y-93312800D01*
X102382459Y-93299832D01*
X102413600Y-93296998D01*
X102420302Y-93294820D01*
X102420304Y-93294820D01*
X102579409Y-93243124D01*
X102579412Y-93243123D01*
X102586108Y-93240947D01*
X102741912Y-93148069D01*
X102873266Y-93022982D01*
X102893310Y-92992813D01*
X102947667Y-92947144D01*
X103018086Y-92938112D01*
X103082210Y-92968586D01*
X103098088Y-92985667D01*
X103101728Y-92990393D01*
X103105380Y-92996424D01*
X103231382Y-93126902D01*
X103383159Y-93226222D01*
X103389763Y-93228678D01*
X103389765Y-93228679D01*
X103546558Y-93286990D01*
X103546560Y-93286990D01*
X103553168Y-93289448D01*
X103636995Y-93300633D01*
X103725980Y-93312507D01*
X103725984Y-93312507D01*
X103732961Y-93313438D01*
X103739972Y-93312800D01*
X103739976Y-93312800D01*
X103882459Y-93299832D01*
X103913600Y-93296998D01*
X103920302Y-93294820D01*
X103920304Y-93294820D01*
X104079409Y-93243124D01*
X104079412Y-93243123D01*
X104086108Y-93240947D01*
X104241912Y-93148069D01*
X104373266Y-93022982D01*
X104473643Y-92871902D01*
X104507199Y-92783566D01*
X104521372Y-92746256D01*
X104550065Y-92701905D01*
X106129081Y-91122889D01*
X106135346Y-91117035D01*
X106173221Y-91083994D01*
X106178946Y-91079000D01*
X106215675Y-91026739D01*
X106219607Y-91021444D01*
X106254352Y-90977133D01*
X106259038Y-90971157D01*
X106262163Y-90964235D01*
X106263525Y-90961987D01*
X106271929Y-90947254D01*
X106273183Y-90944915D01*
X106277551Y-90938700D01*
X106280310Y-90931624D01*
X106280312Y-90931620D01*
X106300761Y-90879170D01*
X106303310Y-90873105D01*
X106329606Y-90814866D01*
X106330990Y-90807401D01*
X106331787Y-90804857D01*
X106336420Y-90788591D01*
X106337082Y-90786011D01*
X106339843Y-90778930D01*
X106348183Y-90715582D01*
X106349214Y-90709068D01*
X106349973Y-90704976D01*
X106360857Y-90646252D01*
X106357270Y-90584041D01*
X106357061Y-90576788D01*
X106357061Y-81827488D01*
X106357353Y-81818919D01*
X106360771Y-81768786D01*
X106360771Y-81768782D01*
X106361287Y-81761209D01*
X106350297Y-81698242D01*
X106349336Y-81691726D01*
X106342575Y-81635859D01*
X106341663Y-81628319D01*
X106338980Y-81621218D01*
X106338339Y-81618609D01*
X106333870Y-81602276D01*
X106333109Y-81599756D01*
X106331804Y-81592278D01*
X106325628Y-81578209D01*
X106306120Y-81533765D01*
X106303629Y-81527660D01*
X106283736Y-81475017D01*
X106283734Y-81475013D01*
X106281048Y-81467905D01*
X106276745Y-81461644D01*
X106275508Y-81459278D01*
X106267281Y-81444498D01*
X106265930Y-81442213D01*
X106262876Y-81435256D01*
X106258256Y-81429236D01*
X106258253Y-81429230D01*
X106223982Y-81384570D01*
X106220102Y-81379229D01*
X106188222Y-81332841D01*
X106188217Y-81332836D01*
X106183918Y-81326580D01*
X106177656Y-81321000D01*
X106137391Y-81285126D01*
X106132115Y-81280145D01*
X104548673Y-79696703D01*
X104518777Y-79649046D01*
X104483745Y-79548448D01*
X104387626Y-79394624D01*
X104362791Y-79369615D01*
X104264778Y-79270915D01*
X104264774Y-79270912D01*
X104259815Y-79265918D01*
X104248697Y-79258862D01*
X104170391Y-79209168D01*
X104106666Y-79168727D01*
X104077463Y-79158328D01*
X103942425Y-79110243D01*
X103942420Y-79110242D01*
X103935790Y-79107881D01*
X103928802Y-79107048D01*
X103928799Y-79107047D01*
X103805698Y-79092368D01*
X103755680Y-79086404D01*
X103748677Y-79087140D01*
X103748676Y-79087140D01*
X103582288Y-79104628D01*
X103582286Y-79104629D01*
X103575288Y-79105364D01*
X103403579Y-79163818D01*
X103397575Y-79167512D01*
X103255095Y-79255166D01*
X103255092Y-79255168D01*
X103249088Y-79258862D01*
X103244054Y-79263792D01*
X103244050Y-79263795D01*
X103124525Y-79380843D01*
X103119493Y-79385771D01*
X103106514Y-79405911D01*
X103052804Y-79452334D01*
X102982517Y-79462350D01*
X102917973Y-79432777D01*
X102893753Y-79404429D01*
X102887626Y-79394624D01*
X102862791Y-79369615D01*
X102764778Y-79270915D01*
X102764774Y-79270912D01*
X102759815Y-79265918D01*
X102748697Y-79258862D01*
X102670391Y-79209168D01*
X102606666Y-79168727D01*
X102577463Y-79158328D01*
X102442425Y-79110243D01*
X102442420Y-79110242D01*
X102435790Y-79107881D01*
X102428802Y-79107048D01*
X102428799Y-79107047D01*
X102305698Y-79092368D01*
X102255680Y-79086404D01*
X102248677Y-79087140D01*
X102248676Y-79087140D01*
X102082288Y-79104628D01*
X102082286Y-79104629D01*
X102075288Y-79105364D01*
X101903579Y-79163818D01*
X101897575Y-79167512D01*
X101755095Y-79255166D01*
X101755092Y-79255168D01*
X101749088Y-79258862D01*
X101632912Y-79372630D01*
X101570248Y-79405999D01*
X101499490Y-79400193D01*
X101460445Y-79376241D01*
X101459444Y-79375340D01*
X101454450Y-79369615D01*
X101402169Y-79332871D01*
X101396875Y-79328939D01*
X101352582Y-79294209D01*
X101346607Y-79289524D01*
X101339691Y-79286401D01*
X101337405Y-79285017D01*
X101322724Y-79276643D01*
X101320364Y-79275378D01*
X101314150Y-79271010D01*
X101307071Y-79268250D01*
X101307069Y-79268249D01*
X101254614Y-79247798D01*
X101248545Y-79245247D01*
X101190316Y-79218955D01*
X101190517Y-79218511D01*
X101170391Y-79209168D01*
X101165999Y-79206381D01*
X101106666Y-79168727D01*
X101077463Y-79158328D01*
X100942425Y-79110243D01*
X100942420Y-79110242D01*
X100935790Y-79107881D01*
X100928802Y-79107048D01*
X100928799Y-79107047D01*
X100805698Y-79092368D01*
X100755680Y-79086404D01*
X100748677Y-79087140D01*
X100748676Y-79087140D01*
X100582288Y-79104628D01*
X100582286Y-79104629D01*
X100575288Y-79105364D01*
X100403579Y-79163818D01*
X100397575Y-79167512D01*
X100255095Y-79255166D01*
X100255092Y-79255168D01*
X100249088Y-79258862D01*
X100244054Y-79263792D01*
X100244050Y-79263795D01*
X100124525Y-79380843D01*
X100119493Y-79385771D01*
X100106514Y-79405911D01*
X100052804Y-79452334D01*
X99982517Y-79462350D01*
X99917973Y-79432777D01*
X99893753Y-79404429D01*
X99887626Y-79394624D01*
X99862791Y-79369615D01*
X99764778Y-79270915D01*
X99764774Y-79270912D01*
X99759815Y-79265918D01*
X99748697Y-79258862D01*
X99670391Y-79209168D01*
X99606666Y-79168727D01*
X99577463Y-79158328D01*
X99442425Y-79110243D01*
X99442420Y-79110242D01*
X99435790Y-79107881D01*
X99428802Y-79107048D01*
X99428799Y-79107047D01*
X99305698Y-79092368D01*
X99255680Y-79086404D01*
X99248677Y-79087140D01*
X99248676Y-79087140D01*
X99082288Y-79104628D01*
X99082286Y-79104629D01*
X99075288Y-79105364D01*
X98985094Y-79136068D01*
X98910249Y-79161547D01*
X98910246Y-79161548D01*
X98903579Y-79163818D01*
X98897581Y-79167508D01*
X98897579Y-79167509D01*
X98826682Y-79211125D01*
X98811304Y-79219181D01*
X98758315Y-79242441D01*
X98752210Y-79244932D01*
X98699567Y-79264825D01*
X98699563Y-79264827D01*
X98692455Y-79267513D01*
X98686194Y-79271816D01*
X98683828Y-79273053D01*
X98669048Y-79281280D01*
X98666763Y-79282631D01*
X98659806Y-79285685D01*
X98653786Y-79290305D01*
X98653780Y-79290308D01*
X98622653Y-79314194D01*
X98609109Y-79324587D01*
X98603779Y-79328459D01*
X98557391Y-79360339D01*
X98557386Y-79360344D01*
X98551130Y-79364643D01*
X98546078Y-79370313D01*
X98540380Y-79375337D01*
X98538760Y-79373499D01*
X98488593Y-79404777D01*
X98417603Y-79403804D01*
X98365348Y-79372190D01*
X98264778Y-79270915D01*
X98264774Y-79270912D01*
X98259815Y-79265918D01*
X98248697Y-79258862D01*
X98170391Y-79209168D01*
X98106666Y-79168727D01*
X98077463Y-79158328D01*
X97942425Y-79110243D01*
X97942420Y-79110242D01*
X97935790Y-79107881D01*
X97928802Y-79107048D01*
X97928799Y-79107047D01*
X97805698Y-79092368D01*
X97755680Y-79086404D01*
X97748677Y-79087140D01*
X97748676Y-79087140D01*
X97582288Y-79104628D01*
X97582286Y-79104629D01*
X97575288Y-79105364D01*
X97403579Y-79163818D01*
X97397575Y-79167512D01*
X97255095Y-79255166D01*
X97255092Y-79255168D01*
X97249088Y-79258862D01*
X97244054Y-79263792D01*
X97244050Y-79263795D01*
X97124525Y-79380843D01*
X97119493Y-79385771D01*
X97106514Y-79405911D01*
X97052804Y-79452334D01*
X96982517Y-79462350D01*
X96917973Y-79432777D01*
X96893753Y-79404429D01*
X96887626Y-79394624D01*
X96862791Y-79369615D01*
X96764778Y-79270915D01*
X96764774Y-79270912D01*
X96759815Y-79265918D01*
X96748697Y-79258862D01*
X96670391Y-79209168D01*
X96606666Y-79168727D01*
X96577463Y-79158328D01*
X96442425Y-79110243D01*
X96442420Y-79110242D01*
X96435790Y-79107881D01*
X96428802Y-79107048D01*
X96428799Y-79107047D01*
X96305698Y-79092368D01*
X96255680Y-79086404D01*
X96248677Y-79087140D01*
X96248676Y-79087140D01*
X96082288Y-79104628D01*
X96082286Y-79104629D01*
X96075288Y-79105364D01*
X95903579Y-79163818D01*
X95897575Y-79167512D01*
X95755095Y-79255166D01*
X95755092Y-79255168D01*
X95749088Y-79258862D01*
X95744054Y-79263792D01*
X95744050Y-79263795D01*
X95624525Y-79380843D01*
X95619493Y-79385771D01*
X95521235Y-79538238D01*
X95518825Y-79544858D01*
X95518824Y-79544861D01*
X95480110Y-79651226D01*
X95450804Y-79697226D01*
X93870919Y-81277111D01*
X93864654Y-81282965D01*
X93821054Y-81321000D01*
X93816687Y-81327214D01*
X93784311Y-81373280D01*
X93780378Y-81378575D01*
X93740963Y-81428843D01*
X93737840Y-81435759D01*
X93736456Y-81438045D01*
X93728082Y-81452726D01*
X93726817Y-81455086D01*
X93722449Y-81461300D01*
X93719689Y-81468379D01*
X93719688Y-81468381D01*
X93699237Y-81520836D01*
X93696686Y-81526905D01*
X93670394Y-81585134D01*
X93669010Y-81592601D01*
X93668209Y-81595156D01*
X93663580Y-81611409D01*
X93662917Y-81613989D01*
X93660157Y-81621070D01*
X93659166Y-81628601D01*
X93659165Y-81628603D01*
X93651818Y-81684413D01*
X93650787Y-81690920D01*
X93639143Y-81753747D01*
X93639580Y-81761327D01*
X93639580Y-81761328D01*
X93642730Y-81815947D01*
X93642939Y-81823201D01*
X93642939Y-90572527D01*
X93642647Y-90581097D01*
X93638714Y-90638791D01*
X74308000Y-90638791D01*
X74308000Y-77984000D01*
X74328002Y-77915879D01*
X74381658Y-77869386D01*
X74434000Y-77858000D01*
X125566000Y-77858000D01*
X125634121Y-77878002D01*
G37*
G04 #@! TD.AperFunction*
M02*
