M48
; DRILL file {KiCad (6.0.1-0)} date Tuesday, February 22, 2022 at 10:21:20 PM
; FORMAT={-:-/ absolute / inch / decimal}
; #@! TF.CreationDate,2022-02-22T22:21:20-05:00
; #@! TF.GenerationSoftware,Kicad,Pcbnew,(6.0.1-0)
; #@! TF.FileFunction,Plated,1,2,PTH
FMAT,2
INCH
; #@! TA.AperFunction,Plated,PTH,ViaDrill
T1C0.0315
%
G90
G05
T1
X3.0177Y-2.5256
X3.0177Y-2.7618
X3.0827Y-2.5256
X3.0827Y-2.7618
X3.1417Y-2.5256
X3.1417Y-2.7618
X3.2008Y-2.5256
X3.2008Y-2.7618
X3.2598Y-2.5256
X3.2598Y-2.7618
X3.3189Y-2.5256
X3.3189Y-2.7618
X3.378Y-2.5256
X3.378Y-2.7618
X3.437Y-2.5256
X3.437Y-2.7618
X3.4961Y-2.5256
X3.4961Y-2.7618
X3.5551Y-2.5256
X3.5551Y-2.7618
X3.6142Y-2.5256
X3.6142Y-2.7618
X3.6732Y-2.5256
X3.6732Y-2.7618
X3.7323Y-2.5256
X3.7323Y-2.7618
X3.7913Y-2.5256
X3.7913Y-2.7618
X3.8504Y-2.5256
X3.8504Y-2.7618
X3.9094Y-2.5256
X3.9094Y-2.7618
X3.9685Y-2.5256
X3.9685Y-2.7618
X4.0276Y-2.5256
X4.0276Y-2.7618
X4.0866Y-2.5256
X4.0866Y-2.7618
X4.1457Y-2.5256
X4.1457Y-2.7618
X4.2047Y-2.5256
X4.2047Y-2.7618
X4.2638Y-2.5256
X4.2638Y-2.7618
X4.3228Y-2.5256
X4.3228Y-2.7618
X4.3819Y-2.5256
X4.3819Y-2.7618
X4.4409Y-2.5256
X4.4409Y-2.7618
X4.5Y-2.5256
X4.5Y-2.7618
X4.5591Y-2.5256
X4.5591Y-2.7618
X4.6181Y-2.5256
X4.6181Y-2.7618
X4.6772Y-2.5256
X4.6772Y-2.7618
X4.7362Y-2.5256
X4.7362Y-2.7618
X4.7953Y-2.5256
X4.7953Y-2.7618
X4.8602Y-2.5256
X4.8602Y-2.7618
T0
M30
