G04 #@! TF.GenerationSoftware,KiCad,Pcbnew,(6.0.1-0)*
G04 #@! TF.CreationDate,2022-02-22T22:21:45-05:00*
G04 #@! TF.ProjectId,GBCart-Bridge,47424361-7274-42d4-9272-696467652e6b,rev?*
G04 #@! TF.SameCoordinates,Original*
G04 #@! TF.FileFunction,Legend,Bot*
G04 #@! TF.FilePolarity,Positive*
%FSLAX46Y46*%
G04 Gerber Fmt 4.6, Leading zero omitted, Abs format (unit mm)*
G04 Created by KiCad (PCBNEW (6.0.1-0)) date 2022-02-22 22:21:45*
%MOMM*%
%LPD*%
G01*
G04 APERTURE LIST*
G04 #@! TA.AperFunction,Profile*
%ADD10C,0.150000*%
G04 #@! TD*
%ADD11C,0.150000*%
G04 APERTURE END LIST*
D10*
X75450000Y-64150000D02*
X75450000Y-70150000D01*
X75450000Y-64150000D02*
X124550000Y-64150000D01*
X124550000Y-64150000D02*
X124550000Y-70150000D01*
X124550000Y-70150000D02*
X75450000Y-70150000D01*
D11*
X123628571Y-66815714D02*
X123390476Y-67482380D01*
X123152380Y-66815714D01*
X122580952Y-66482380D02*
X122485714Y-66482380D01*
X122390476Y-66530000D01*
X122342857Y-66577619D01*
X122295238Y-66672857D01*
X122247619Y-66863333D01*
X122247619Y-67101428D01*
X122295238Y-67291904D01*
X122342857Y-67387142D01*
X122390476Y-67434761D01*
X122485714Y-67482380D01*
X122580952Y-67482380D01*
X122676190Y-67434761D01*
X122723809Y-67387142D01*
X122771428Y-67291904D01*
X122819047Y-67101428D01*
X122819047Y-66863333D01*
X122771428Y-66672857D01*
X122723809Y-66577619D01*
X122676190Y-66530000D01*
X122580952Y-66482380D01*
X121819047Y-67387142D02*
X121771428Y-67434761D01*
X121819047Y-67482380D01*
X121866666Y-67434761D01*
X121819047Y-67387142D01*
X121819047Y-67482380D01*
X121390476Y-66577619D02*
X121342857Y-66530000D01*
X121247619Y-66482380D01*
X121009523Y-66482380D01*
X120914285Y-66530000D01*
X120866666Y-66577619D01*
X120819047Y-66672857D01*
X120819047Y-66768095D01*
X120866666Y-66910952D01*
X121438095Y-67482380D01*
X120819047Y-67482380D01*
M02*
