%FSLAX45Y45*%
G04 Gerber Fmt 4.5, Leading zero omitted, Abs format (unit mm)*
G04 Created by KiCad (PCBNEW (6.0.1-0)) date 2022-02-22 22:21:20*
%MOMM*%
%LPD*%
G01*
G04 APERTURE LIST*
%TA.AperFunction,Profile*%
%ADD10C,0.150000*%
%TD*%
%ADD11C,0.200000*%
%ADD12C,0.080000*%
G04 APERTURE END LIST*
D10*
X7545000Y-6415000D02*
X7545000Y-7015000D01*
X7545000Y-6415000D02*
X12455000Y-6415000D01*
X12455000Y-6415000D02*
X12455000Y-7015000D01*
X12455000Y-7015000D02*
X7545000Y-7015000D01*
D11*
D12*
X7625000Y-6375000D02*
X7705000Y-6455000D01*
X7705000Y-6375000D02*
X7625000Y-6455000D01*
X7625000Y-6975000D02*
X7705000Y-7055000D01*
X7705000Y-6975000D02*
X7625000Y-7055000D01*
X7790000Y-6375000D02*
X7870000Y-6455000D01*
X7870000Y-6375000D02*
X7790000Y-6455000D01*
X7790000Y-6975000D02*
X7870000Y-7055000D01*
X7870000Y-6975000D02*
X7790000Y-7055000D01*
X7940000Y-6375000D02*
X8020000Y-6455000D01*
X8020000Y-6375000D02*
X7940000Y-6455000D01*
X7940000Y-6975000D02*
X8020000Y-7055000D01*
X8020000Y-6975000D02*
X7940000Y-7055000D01*
X8090000Y-6375000D02*
X8170000Y-6455000D01*
X8170000Y-6375000D02*
X8090000Y-6455000D01*
X8090000Y-6975000D02*
X8170000Y-7055000D01*
X8170000Y-6975000D02*
X8090000Y-7055000D01*
X8240000Y-6375000D02*
X8320000Y-6455000D01*
X8320000Y-6375000D02*
X8240000Y-6455000D01*
X8240000Y-6975000D02*
X8320000Y-7055000D01*
X8320000Y-6975000D02*
X8240000Y-7055000D01*
X8390000Y-6375000D02*
X8470000Y-6455000D01*
X8470000Y-6375000D02*
X8390000Y-6455000D01*
X8390000Y-6975000D02*
X8470000Y-7055000D01*
X8470000Y-6975000D02*
X8390000Y-7055000D01*
X8540000Y-6375000D02*
X8620000Y-6455000D01*
X8620000Y-6375000D02*
X8540000Y-6455000D01*
X8540000Y-6975000D02*
X8620000Y-7055000D01*
X8620000Y-6975000D02*
X8540000Y-7055000D01*
X8690000Y-6375000D02*
X8770000Y-6455000D01*
X8770000Y-6375000D02*
X8690000Y-6455000D01*
X8690000Y-6975000D02*
X8770000Y-7055000D01*
X8770000Y-6975000D02*
X8690000Y-7055000D01*
X8840000Y-6375000D02*
X8920000Y-6455000D01*
X8920000Y-6375000D02*
X8840000Y-6455000D01*
X8840000Y-6975000D02*
X8920000Y-7055000D01*
X8920000Y-6975000D02*
X8840000Y-7055000D01*
X8990000Y-6375000D02*
X9070000Y-6455000D01*
X9070000Y-6375000D02*
X8990000Y-6455000D01*
X8990000Y-6975000D02*
X9070000Y-7055000D01*
X9070000Y-6975000D02*
X8990000Y-7055000D01*
X9140000Y-6375000D02*
X9220000Y-6455000D01*
X9220000Y-6375000D02*
X9140000Y-6455000D01*
X9140000Y-6975000D02*
X9220000Y-7055000D01*
X9220000Y-6975000D02*
X9140000Y-7055000D01*
X9290000Y-6375000D02*
X9370000Y-6455000D01*
X9370000Y-6375000D02*
X9290000Y-6455000D01*
X9290000Y-6975000D02*
X9370000Y-7055000D01*
X9370000Y-6975000D02*
X9290000Y-7055000D01*
X9440000Y-6375000D02*
X9520000Y-6455000D01*
X9520000Y-6375000D02*
X9440000Y-6455000D01*
X9440000Y-6975000D02*
X9520000Y-7055000D01*
X9520000Y-6975000D02*
X9440000Y-7055000D01*
X9590000Y-6375000D02*
X9670000Y-6455000D01*
X9670000Y-6375000D02*
X9590000Y-6455000D01*
X9590000Y-6975000D02*
X9670000Y-7055000D01*
X9670000Y-6975000D02*
X9590000Y-7055000D01*
X9740000Y-6375000D02*
X9820000Y-6455000D01*
X9820000Y-6375000D02*
X9740000Y-6455000D01*
X9740000Y-6975000D02*
X9820000Y-7055000D01*
X9820000Y-6975000D02*
X9740000Y-7055000D01*
X9890000Y-6375000D02*
X9970000Y-6455000D01*
X9970000Y-6375000D02*
X9890000Y-6455000D01*
X9890000Y-6975000D02*
X9970000Y-7055000D01*
X9970000Y-6975000D02*
X9890000Y-7055000D01*
X10040000Y-6375000D02*
X10120000Y-6455000D01*
X10120000Y-6375000D02*
X10040000Y-6455000D01*
X10040000Y-6975000D02*
X10120000Y-7055000D01*
X10120000Y-6975000D02*
X10040000Y-7055000D01*
X10190000Y-6375000D02*
X10270000Y-6455000D01*
X10270000Y-6375000D02*
X10190000Y-6455000D01*
X10190000Y-6975000D02*
X10270000Y-7055000D01*
X10270000Y-6975000D02*
X10190000Y-7055000D01*
X10340000Y-6375000D02*
X10420000Y-6455000D01*
X10420000Y-6375000D02*
X10340000Y-6455000D01*
X10340000Y-6975000D02*
X10420000Y-7055000D01*
X10420000Y-6975000D02*
X10340000Y-7055000D01*
X10490000Y-6375000D02*
X10570000Y-6455000D01*
X10570000Y-6375000D02*
X10490000Y-6455000D01*
X10490000Y-6975000D02*
X10570000Y-7055000D01*
X10570000Y-6975000D02*
X10490000Y-7055000D01*
X10640000Y-6375000D02*
X10720000Y-6455000D01*
X10720000Y-6375000D02*
X10640000Y-6455000D01*
X10640000Y-6975000D02*
X10720000Y-7055000D01*
X10720000Y-6975000D02*
X10640000Y-7055000D01*
X10790000Y-6375000D02*
X10870000Y-6455000D01*
X10870000Y-6375000D02*
X10790000Y-6455000D01*
X10790000Y-6975000D02*
X10870000Y-7055000D01*
X10870000Y-6975000D02*
X10790000Y-7055000D01*
X10940000Y-6375000D02*
X11020000Y-6455000D01*
X11020000Y-6375000D02*
X10940000Y-6455000D01*
X10940000Y-6975000D02*
X11020000Y-7055000D01*
X11020000Y-6975000D02*
X10940000Y-7055000D01*
X11090000Y-6375000D02*
X11170000Y-6455000D01*
X11170000Y-6375000D02*
X11090000Y-6455000D01*
X11090000Y-6975000D02*
X11170000Y-7055000D01*
X11170000Y-6975000D02*
X11090000Y-7055000D01*
X11240000Y-6375000D02*
X11320000Y-6455000D01*
X11320000Y-6375000D02*
X11240000Y-6455000D01*
X11240000Y-6975000D02*
X11320000Y-7055000D01*
X11320000Y-6975000D02*
X11240000Y-7055000D01*
X11390000Y-6375000D02*
X11470000Y-6455000D01*
X11470000Y-6375000D02*
X11390000Y-6455000D01*
X11390000Y-6975000D02*
X11470000Y-7055000D01*
X11470000Y-6975000D02*
X11390000Y-7055000D01*
X11540000Y-6375000D02*
X11620000Y-6455000D01*
X11620000Y-6375000D02*
X11540000Y-6455000D01*
X11540000Y-6975000D02*
X11620000Y-7055000D01*
X11620000Y-6975000D02*
X11540000Y-7055000D01*
X11690000Y-6375000D02*
X11770000Y-6455000D01*
X11770000Y-6375000D02*
X11690000Y-6455000D01*
X11690000Y-6975000D02*
X11770000Y-7055000D01*
X11770000Y-6975000D02*
X11690000Y-7055000D01*
X11840000Y-6375000D02*
X11920000Y-6455000D01*
X11920000Y-6375000D02*
X11840000Y-6455000D01*
X11840000Y-6975000D02*
X11920000Y-7055000D01*
X11920000Y-6975000D02*
X11840000Y-7055000D01*
X11990000Y-6375000D02*
X12070000Y-6455000D01*
X12070000Y-6375000D02*
X11990000Y-6455000D01*
X11990000Y-6975000D02*
X12070000Y-7055000D01*
X12070000Y-6975000D02*
X11990000Y-7055000D01*
X12140000Y-6375000D02*
X12220000Y-6455000D01*
X12220000Y-6375000D02*
X12140000Y-6455000D01*
X12140000Y-6975000D02*
X12220000Y-7055000D01*
X12220000Y-6975000D02*
X12140000Y-7055000D01*
X12305000Y-6375000D02*
X12385000Y-6455000D01*
X12385000Y-6375000D02*
X12305000Y-6455000D01*
X12305000Y-6975000D02*
X12385000Y-7055000D01*
X12385000Y-6975000D02*
X12305000Y-7055000D01*
D11*
X7795119Y-7332976D02*
X7795119Y-7132976D01*
X7842738Y-7132976D01*
X7871309Y-7142500D01*
X7890357Y-7161548D01*
X7899881Y-7180595D01*
X7909405Y-7218690D01*
X7909405Y-7247262D01*
X7899881Y-7285357D01*
X7890357Y-7304405D01*
X7871309Y-7323452D01*
X7842738Y-7332976D01*
X7795119Y-7332976D01*
X7995119Y-7332976D02*
X7995119Y-7199643D01*
X7995119Y-7237738D02*
X8004643Y-7218690D01*
X8014167Y-7209167D01*
X8033214Y-7199643D01*
X8052262Y-7199643D01*
X8118928Y-7332976D02*
X8118928Y-7199643D01*
X8118928Y-7132976D02*
X8109405Y-7142500D01*
X8118928Y-7152024D01*
X8128452Y-7142500D01*
X8118928Y-7132976D01*
X8118928Y-7152024D01*
X8242738Y-7332976D02*
X8223690Y-7323452D01*
X8214167Y-7304405D01*
X8214167Y-7132976D01*
X8347500Y-7332976D02*
X8328452Y-7323452D01*
X8318928Y-7304405D01*
X8318928Y-7132976D01*
X8576071Y-7332976D02*
X8576071Y-7132976D01*
X8642738Y-7275833D01*
X8709405Y-7132976D01*
X8709405Y-7332976D01*
X8890357Y-7332976D02*
X8890357Y-7228214D01*
X8880833Y-7209167D01*
X8861786Y-7199643D01*
X8823690Y-7199643D01*
X8804643Y-7209167D01*
X8890357Y-7323452D02*
X8871310Y-7332976D01*
X8823690Y-7332976D01*
X8804643Y-7323452D01*
X8795119Y-7304405D01*
X8795119Y-7285357D01*
X8804643Y-7266309D01*
X8823690Y-7256786D01*
X8871310Y-7256786D01*
X8890357Y-7247262D01*
X8985595Y-7199643D02*
X8985595Y-7399643D01*
X8985595Y-7209167D02*
X9004643Y-7199643D01*
X9042738Y-7199643D01*
X9061786Y-7209167D01*
X9071310Y-7218690D01*
X9080833Y-7237738D01*
X9080833Y-7294881D01*
X9071310Y-7313928D01*
X9061786Y-7323452D01*
X9042738Y-7332976D01*
X9004643Y-7332976D01*
X8985595Y-7323452D01*
X9166548Y-7313928D02*
X9176071Y-7323452D01*
X9166548Y-7332976D01*
X9157024Y-7323452D01*
X9166548Y-7313928D01*
X9166548Y-7332976D01*
X9166548Y-7209167D02*
X9176071Y-7218690D01*
X9166548Y-7228214D01*
X9157024Y-7218690D01*
X9166548Y-7209167D01*
X9166548Y-7228214D01*
D12*
X7457500Y-7622500D02*
X7537500Y-7702500D01*
X7537500Y-7622500D02*
X7457500Y-7702500D01*
D11*
X7833214Y-7552976D02*
X7852262Y-7552976D01*
X7871309Y-7562500D01*
X7880833Y-7572024D01*
X7890357Y-7591071D01*
X7899881Y-7629167D01*
X7899881Y-7676786D01*
X7890357Y-7714881D01*
X7880833Y-7733928D01*
X7871309Y-7743452D01*
X7852262Y-7752976D01*
X7833214Y-7752976D01*
X7814167Y-7743452D01*
X7804643Y-7733928D01*
X7795119Y-7714881D01*
X7785595Y-7676786D01*
X7785595Y-7629167D01*
X7795119Y-7591071D01*
X7804643Y-7572024D01*
X7814167Y-7562500D01*
X7833214Y-7552976D01*
X7985595Y-7733928D02*
X7995119Y-7743452D01*
X7985595Y-7752976D01*
X7976071Y-7743452D01*
X7985595Y-7733928D01*
X7985595Y-7752976D01*
X8109405Y-7638690D02*
X8090357Y-7629167D01*
X8080833Y-7619643D01*
X8071309Y-7600595D01*
X8071309Y-7591071D01*
X8080833Y-7572024D01*
X8090357Y-7562500D01*
X8109405Y-7552976D01*
X8147500Y-7552976D01*
X8166548Y-7562500D01*
X8176071Y-7572024D01*
X8185595Y-7591071D01*
X8185595Y-7600595D01*
X8176071Y-7619643D01*
X8166548Y-7629167D01*
X8147500Y-7638690D01*
X8109405Y-7638690D01*
X8090357Y-7648214D01*
X8080833Y-7657738D01*
X8071309Y-7676786D01*
X8071309Y-7714881D01*
X8080833Y-7733928D01*
X8090357Y-7743452D01*
X8109405Y-7752976D01*
X8147500Y-7752976D01*
X8166548Y-7743452D01*
X8176071Y-7733928D01*
X8185595Y-7714881D01*
X8185595Y-7676786D01*
X8176071Y-7657738D01*
X8166548Y-7648214D01*
X8147500Y-7638690D01*
X8309405Y-7552976D02*
X8328452Y-7552976D01*
X8347500Y-7562500D01*
X8357024Y-7572024D01*
X8366548Y-7591071D01*
X8376071Y-7629167D01*
X8376071Y-7676786D01*
X8366548Y-7714881D01*
X8357024Y-7733928D01*
X8347500Y-7743452D01*
X8328452Y-7752976D01*
X8309405Y-7752976D01*
X8290357Y-7743452D01*
X8280833Y-7733928D01*
X8271309Y-7714881D01*
X8261786Y-7676786D01*
X8261786Y-7629167D01*
X8271309Y-7591071D01*
X8280833Y-7572024D01*
X8290357Y-7562500D01*
X8309405Y-7552976D01*
X8499881Y-7552976D02*
X8518929Y-7552976D01*
X8537976Y-7562500D01*
X8547500Y-7572024D01*
X8557024Y-7591071D01*
X8566548Y-7629167D01*
X8566548Y-7676786D01*
X8557024Y-7714881D01*
X8547500Y-7733928D01*
X8537976Y-7743452D01*
X8518929Y-7752976D01*
X8499881Y-7752976D01*
X8480833Y-7743452D01*
X8471310Y-7733928D01*
X8461786Y-7714881D01*
X8452262Y-7676786D01*
X8452262Y-7629167D01*
X8461786Y-7591071D01*
X8471310Y-7572024D01*
X8480833Y-7562500D01*
X8499881Y-7552976D01*
X8652262Y-7752976D02*
X8652262Y-7619643D01*
X8652262Y-7638690D02*
X8661786Y-7629167D01*
X8680833Y-7619643D01*
X8709405Y-7619643D01*
X8728452Y-7629167D01*
X8737976Y-7648214D01*
X8737976Y-7752976D01*
X8737976Y-7648214D02*
X8747500Y-7629167D01*
X8766548Y-7619643D01*
X8795119Y-7619643D01*
X8814167Y-7629167D01*
X8823690Y-7648214D01*
X8823690Y-7752976D01*
X8918929Y-7752976D02*
X8918929Y-7619643D01*
X8918929Y-7638690D02*
X8928452Y-7629167D01*
X8947500Y-7619643D01*
X8976071Y-7619643D01*
X8995119Y-7629167D01*
X9004643Y-7648214D01*
X9004643Y-7752976D01*
X9004643Y-7648214D02*
X9014167Y-7629167D01*
X9033214Y-7619643D01*
X9061786Y-7619643D01*
X9080833Y-7629167D01*
X9090357Y-7648214D01*
X9090357Y-7752976D01*
X9480833Y-7543452D02*
X9309405Y-7800595D01*
X9737976Y-7552976D02*
X9757024Y-7552976D01*
X9776071Y-7562500D01*
X9785595Y-7572024D01*
X9795119Y-7591071D01*
X9804643Y-7629167D01*
X9804643Y-7676786D01*
X9795119Y-7714881D01*
X9785595Y-7733928D01*
X9776071Y-7743452D01*
X9757024Y-7752976D01*
X9737976Y-7752976D01*
X9718929Y-7743452D01*
X9709405Y-7733928D01*
X9699881Y-7714881D01*
X9690357Y-7676786D01*
X9690357Y-7629167D01*
X9699881Y-7591071D01*
X9709405Y-7572024D01*
X9718929Y-7562500D01*
X9737976Y-7552976D01*
X9890357Y-7733928D02*
X9899881Y-7743452D01*
X9890357Y-7752976D01*
X9880833Y-7743452D01*
X9890357Y-7733928D01*
X9890357Y-7752976D01*
X10023690Y-7552976D02*
X10042738Y-7552976D01*
X10061786Y-7562500D01*
X10071310Y-7572024D01*
X10080833Y-7591071D01*
X10090357Y-7629167D01*
X10090357Y-7676786D01*
X10080833Y-7714881D01*
X10071310Y-7733928D01*
X10061786Y-7743452D01*
X10042738Y-7752976D01*
X10023690Y-7752976D01*
X10004643Y-7743452D01*
X9995119Y-7733928D01*
X9985595Y-7714881D01*
X9976071Y-7676786D01*
X9976071Y-7629167D01*
X9985595Y-7591071D01*
X9995119Y-7572024D01*
X10004643Y-7562500D01*
X10023690Y-7552976D01*
X10157024Y-7552976D02*
X10280833Y-7552976D01*
X10214167Y-7629167D01*
X10242738Y-7629167D01*
X10261786Y-7638690D01*
X10271310Y-7648214D01*
X10280833Y-7667262D01*
X10280833Y-7714881D01*
X10271310Y-7733928D01*
X10261786Y-7743452D01*
X10242738Y-7752976D01*
X10185595Y-7752976D01*
X10166548Y-7743452D01*
X10157024Y-7733928D01*
X10471310Y-7752976D02*
X10357024Y-7752976D01*
X10414167Y-7752976D02*
X10414167Y-7552976D01*
X10395119Y-7581548D01*
X10376071Y-7600595D01*
X10357024Y-7610119D01*
X10652262Y-7552976D02*
X10557024Y-7552976D01*
X10547500Y-7648214D01*
X10557024Y-7638690D01*
X10576071Y-7629167D01*
X10623690Y-7629167D01*
X10642738Y-7638690D01*
X10652262Y-7648214D01*
X10661786Y-7667262D01*
X10661786Y-7714881D01*
X10652262Y-7733928D01*
X10642738Y-7743452D01*
X10623690Y-7752976D01*
X10576071Y-7752976D01*
X10557024Y-7743452D01*
X10547500Y-7733928D01*
X10737976Y-7552976D02*
X10737976Y-7591071D01*
X10814167Y-7552976D02*
X10814167Y-7591071D01*
X11109405Y-7829167D02*
X11099881Y-7819643D01*
X11080833Y-7791071D01*
X11071310Y-7772024D01*
X11061786Y-7743452D01*
X11052262Y-7695833D01*
X11052262Y-7657738D01*
X11061786Y-7610119D01*
X11071310Y-7581548D01*
X11080833Y-7562500D01*
X11099881Y-7533928D01*
X11109405Y-7524405D01*
X11271309Y-7552976D02*
X11233214Y-7552976D01*
X11214167Y-7562500D01*
X11204643Y-7572024D01*
X11185595Y-7600595D01*
X11176071Y-7638690D01*
X11176071Y-7714881D01*
X11185595Y-7733928D01*
X11195119Y-7743452D01*
X11214167Y-7752976D01*
X11252262Y-7752976D01*
X11271309Y-7743452D01*
X11280833Y-7733928D01*
X11290357Y-7714881D01*
X11290357Y-7667262D01*
X11280833Y-7648214D01*
X11271309Y-7638690D01*
X11252262Y-7629167D01*
X11214167Y-7629167D01*
X11195119Y-7638690D01*
X11185595Y-7648214D01*
X11176071Y-7667262D01*
X11461786Y-7619643D02*
X11461786Y-7752976D01*
X11414167Y-7543452D02*
X11366548Y-7686309D01*
X11490357Y-7686309D01*
X11718928Y-7752976D02*
X11718928Y-7552976D01*
X11804643Y-7752976D02*
X11804643Y-7648214D01*
X11795119Y-7629167D01*
X11776071Y-7619643D01*
X11747500Y-7619643D01*
X11728452Y-7629167D01*
X11718928Y-7638690D01*
X11928452Y-7752976D02*
X11909405Y-7743452D01*
X11899881Y-7733928D01*
X11890357Y-7714881D01*
X11890357Y-7657738D01*
X11899881Y-7638690D01*
X11909405Y-7629167D01*
X11928452Y-7619643D01*
X11957024Y-7619643D01*
X11976071Y-7629167D01*
X11985595Y-7638690D01*
X11995119Y-7657738D01*
X11995119Y-7714881D01*
X11985595Y-7733928D01*
X11976071Y-7743452D01*
X11957024Y-7752976D01*
X11928452Y-7752976D01*
X12109405Y-7752976D02*
X12090357Y-7743452D01*
X12080833Y-7724405D01*
X12080833Y-7552976D01*
X12261786Y-7743452D02*
X12242738Y-7752976D01*
X12204643Y-7752976D01*
X12185595Y-7743452D01*
X12176071Y-7724405D01*
X12176071Y-7648214D01*
X12185595Y-7629167D01*
X12204643Y-7619643D01*
X12242738Y-7619643D01*
X12261786Y-7629167D01*
X12271309Y-7648214D01*
X12271309Y-7667262D01*
X12176071Y-7686309D01*
X12347500Y-7743452D02*
X12366548Y-7752976D01*
X12404643Y-7752976D01*
X12423690Y-7743452D01*
X12433214Y-7724405D01*
X12433214Y-7714881D01*
X12423690Y-7695833D01*
X12404643Y-7686309D01*
X12376071Y-7686309D01*
X12357024Y-7676786D01*
X12347500Y-7657738D01*
X12347500Y-7648214D01*
X12357024Y-7629167D01*
X12376071Y-7619643D01*
X12404643Y-7619643D01*
X12423690Y-7629167D01*
X12499881Y-7829167D02*
X12509405Y-7819643D01*
X12528452Y-7791071D01*
X12537976Y-7772024D01*
X12547500Y-7743452D01*
X12557024Y-7695833D01*
X12557024Y-7657738D01*
X12547500Y-7610119D01*
X12537976Y-7581548D01*
X12528452Y-7562500D01*
X12509405Y-7533928D01*
X12499881Y-7524405D01*
M02*
